<?xml version="1.0" encoding="UTF-8" standalone="no"?>
<svg
   version="1.1"
   width="595.27557pt"
   height="841.88977pt"
   id="svg14"
   viewBox="0 0 595.27557 841.88977"
   sodipodi:docname="a2 logo curvas.cdr"
   xmlns:inkscape="http://www.inkscape.org/namespaces/inkscape"
   xmlns:sodipodi="http://sodipodi.sourceforge.net/DTD/sodipodi-0.dtd"
   xmlns="http://www.w3.org/2000/svg"
   xmlns:svg="http://www.w3.org/2000/svg">
  <defs
     id="defs18" />
  <sodipodi:namedview
     id="namedview16"
     pagecolor="#ffffff"
     bordercolor="#000000"
     borderopacity="0.25"
     inkscape:showpageshadow="2"
     inkscape:pageopacity="0.0"
     inkscape:pagecheckerboard="0"
     inkscape:deskcolor="#d1d1d1"
     inkscape:document-units="pt" />
  <path
     d="m 268.4495,335.857 h -4.1639 l -5.1661,-11.7544 h 17.7726 v 8e-4 h 9.33 l -5.1661,11.7545 h -12.6065 z"
     style="fill:#ffffff;fill-rule:evenodd"
     id="path2" />
  <path
     d="m 326.6542,476.1472 -13.2873,-30.4419 30.0651,-17.1209 20.8208,47.5628 z"
     style="fill:#d9dadb;fill-rule:evenodd"
     id="path4" />
  <path
     d="m 232.0783,461.5596 44.3734,-101.441 15.2294,-36.016 h 0.4679 5.3735 l 3.0785,7.0041 30.1047,68.6842 -29.3649,18.2712 -18.0677,-40.9573 -31.2153,71.622 -6.3936,3.9782 z"
     style="fill:#d9dadb;fill-rule:evenodd"
     id="path6" />
  <path
     d="m 224.2477,517.1601 c -0.9082,0.438 -2.092,0.6571 -3.5535,0.6571 -1.9086,0 -3.409,-0.5593 -4.5006,-1.6807 -1.0919,-1.1216 -1.6393,-2.6158 -1.6393,-4.483 0,-1.9853 0.6154,-3.598 1.8434,-4.8347 1.228,-1.2371 2.8199,-1.8553 4.7818,-1.8553 1.2129,0 2.2368,0.1539 3.0682,0.4615 v 2.6986 c -0.8314,-0.4972 -1.7813,-0.7456 -2.8434,-0.7456 -1.1688,0 -2.1099,0.3669 -2.8287,1.1007 -0.7161,0.7336 -1.0744,1.728 -1.0744,2.9795 0,1.2045 0.3374,2.16 1.0151,2.8732 0.6747,0.7132 1.586,1.0712 2.7312,1.0712 1.0916,0 2.092,-0.2664 3.0002,-0.799 z m 13.3449,0.6571 c -1.7813,0 -3.2312,-0.58 -4.3526,-1.7371 -1.1214,-1.1599 -1.6806,-2.6688 -1.6806,-4.53 0,-1.9647 0.568,-3.5538 1.7073,-4.767 1.1392,-1.213 2.6481,-1.8196 4.5241,-1.8196 1.7753,0 3.2105,0.58 4.3052,1.7427 1.0948,1.16 1.6424,2.6927 1.6424,4.5924 0,1.9528 -0.5683,3.5269 -1.7044,4.7254 -1.1333,1.1954 -2.6159,1.7932 -4.4414,1.7932 z m 0.1214,-10.4392 c -0.9825,0 -1.7638,0.3669 -2.3406,1.1036 -0.5771,0.7367 -0.8671,1.7132 -0.8671,2.9265 0,1.2308 0.29,2.2042 0.8671,2.9205 0.5768,0.716 1.3345,1.074 2.2725,1.074 0.9647,0 1.728,-0.3492 2.2961,-1.0445 0.5652,-0.6954 0.8492,-1.6628 0.8492,-2.8999 0,-1.2872 -0.2752,-2.2901 -0.8226,-3.0061 -0.5505,-0.716 -1.3019,-1.0741 -2.2546,-1.0741 z m 25.2011,10.226 h -2.8228 l -5.1278,-7.8086 c -0.2991,-0.4558 -0.5091,-0.7991 -0.6245,-1.0298 h -0.0326 c 0.0445,0.438 0.068,1.1067 0.068,2.0092 v 6.8292 h -2.6453 v -12.4276 h 3.0184 l 4.9325,7.5662 c 0.2248,0.3402 0.432,0.6775 0.6242,1.0148 h 0.0326 c -0.0445,-0.29 -0.068,-0.858 -0.068,-1.7073 v -6.8737 h 2.6453 z m 8.1989,-0.4793 v -2.7695 c 0.5032,0.4201 1.0505,0.7337 1.6424,0.9437 0.5888,0.2103 1.1863,0.3166 1.7873,0.3166 0.352,0 0.6627,-0.0323 0.926,-0.0946 0.2634,-0.065 0.4822,-0.1509 0.6568,-0.2662 0.1775,-0.1126 0.3107,-0.2458 0.3966,-0.3966 0.0859,-0.1539 0.1301,-0.3195 0.1301,-0.5 0,-0.2427 -0.068,-0.4587 -0.2072,-0.648 -0.1389,-0.1925 -0.3283,-0.3668 -0.5709,-0.5298 -0.2398,-0.1627 -0.5239,-0.3195 -0.8552,-0.4674 -0.3286,-0.1509 -0.6866,-0.3048 -1.0681,-0.4615 -0.9706,-0.4025 -1.6954,-0.8966 -2.1748,-1.4794 -0.4765,-0.586 -0.7163,-1.2904 -0.7163,-2.1158 0,-0.648 0.1304,-1.2042 0.3906,-1.6688 0.2605,-0.4646 0.6154,-0.8492 1.0625,-1.148 0.4467,-0.3019 0.9674,-0.521 1.5562,-0.663 0.5919,-0.142 1.2163,-0.2129 1.8731,-0.2129 0.648,0 1.222,0.0383 1.7221,0.1182 0.5,0.0771 0.9618,0.1984 1.3847,0.3611 v 2.592 c -0.2069,-0.1451 -0.4348,-0.2721 -0.6806,-0.3818 -0.2455,-0.1122 -0.5,-0.2041 -0.7603,-0.275 -0.2605,-0.0739 -0.5179,-0.1272 -0.7752,-0.1598 -0.2574,-0.0355 -0.5032,-0.0533 -0.7339,-0.0533 -0.3195,0 -0.6066,0.0295 -0.8669,0.0918 -0.2605,0.059 -0.4824,0.1449 -0.6599,0.2543 -0.1805,0.1097 -0.3194,0.2426 -0.4172,0.3937 -0.0975,0.1537 -0.148,0.3254 -0.148,0.5176 0,0.2072 0.0561,0.3938 0.1658,0.5593 0.1094,0.1627 0.2662,0.3198 0.4675,0.4674 0.2041,0.148 0.4498,0.29 0.7398,0.4323 0.29,0.142 0.6154,0.2869 0.9794,0.4377 0.5,0.2103 0.9467,0.4292 1.3433,0.663 0.3966,0.2336 0.7367,0.5 1.0208,0.7929 0.2812,0.2959 0.5,0.6332 0.6511,1.0119 0.1508,0.3787 0.2248,0.8167 0.2248,1.3198 0,0.6954 -0.1301,1.2754 -0.3935,1.7487 -0.2633,0.4706 -0.6216,0.8521 -1.0743,1.1421 -0.4496,0.2931 -0.9734,0.5032 -1.5741,0.6304 -0.5975,0.127 -1.2308,0.1894 -1.8966,0.1894 -0.6806,0 -1.3315,-0.0592 -1.9469,-0.1746 -0.6157,-0.1154 -1.1483,-0.2872 -1.601,-0.5179 z m 21.6981,0.6925 c -1.7813,0 -3.2312,-0.58 -4.3526,-1.7371 -1.1214,-1.1599 -1.6807,-2.6688 -1.6807,-4.53 0,-1.9647 0.5681,-3.5538 1.7073,-4.767 1.1393,-1.213 2.6482,-1.8196 4.5241,-1.8196 1.7754,0 3.2106,0.58 4.3053,1.7427 1.0947,1.16 1.6424,2.6927 1.6424,4.5924 0,1.9528 -0.5684,3.5269 -1.7045,4.7254 -1.1333,1.1954 -2.6158,1.7932 -4.4413,1.7932 z m 0.1213,-10.4392 c -0.9825,0 -1.7637,0.3669 -2.3405,1.1036 -0.5772,0.7367 -0.8672,1.7132 -0.8672,2.9265 0,1.2308 0.29,2.2042 0.8672,2.9205 0.5768,0.716 1.3345,1.074 2.2725,1.074 0.9646,0 1.728,-0.3492 2.296,-1.0445 0.5653,-0.6954 0.8493,-1.6628 0.8493,-2.8999 0,-1.2872 -0.2752,-2.2901 -0.8226,-3.0061 -0.5505,-0.716 -1.302,-1.0741 -2.2547,-1.0741 z m 2.8287,-6.1605 -2.7105,2.8049 h -1.9766 l 2.2519,-2.8049 z m 21.6091,16.3865 h -3.2134 l -1.9352,-3.1986 c -0.142,-0.2426 -0.2809,-0.4586 -0.4141,-0.6508 -0.1333,-0.1897 -0.2665,-0.3524 -0.4025,-0.4884 -0.1361,-0.1361 -0.2781,-0.2396 -0.4261,-0.3107 -0.1448,-0.074 -0.3078,-0.1094 -0.4793,-0.1094 h -0.7546 v 4.7579 h -2.8052 v -12.4276 h 4.4385 c 3.0181,0 4.5272,1.1273 4.5272,3.3792 0,0.4351 -0.0652,0.8345 -0.1981,1.2013 -0.1333,0.3668 -0.3226,0.6984 -0.5653,0.9913 -0.2426,0.2959 -0.5354,0.5504 -0.8787,0.7633 -0.3433,0.2132 -0.7251,0.3819 -1.148,0.5032 v 0.0354 c 0.1862,0.0561 0.3639,0.1508 0.5383,0.2812 0.1718,0.1301 0.3404,0.2809 0.5031,0.4555 0.1599,0.1718 0.3167,0.3581 0.4615,0.5593 0.148,0.1982 0.284,0.3935 0.4054,0.5828 z m -7.6252,-10.3325 v 3.4619 h 1.2132 c 0.6007,0 1.0828,-0.1746 1.4468,-0.5207 0.3699,-0.3524 0.5533,-0.79 0.5533,-1.311 0,-1.086 -0.6508,-1.6302 -1.9499,-1.6302 z m 23.6242,9.8886 c -0.9082,0.438 -2.092,0.6571 -3.5535,0.6571 -1.9086,0 -3.409,-0.5593 -4.5006,-1.6807 -1.0919,-1.1216 -1.6392,-2.6158 -1.6392,-4.483 0,-1.9853 0.6154,-3.598 1.8433,-4.8347 1.228,-1.2371 2.8199,-1.8553 4.7818,-1.8553 1.2129,0 2.2368,0.1539 3.0682,0.4615 v 2.6986 c -0.8314,-0.4972 -1.7813,-0.7456 -2.8434,-0.7456 -1.1688,0 -2.1099,0.3669 -2.8287,1.1007 -0.7161,0.7336 -1.0744,1.728 -1.0744,2.9795 0,1.2045 0.3374,2.16 1.0151,2.8732 0.6747,0.7132 1.586,1.0712 2.7312,1.0712 1.0916,0 2.092,-0.2664 3.0002,-0.799 z m 11.9452,-11.9837 v 2.1659 h -1.0474 v 8.0958 h 1.0474 v 2.1659 h -4.9 v -2.1659 h 1.0474 v -8.0958 h -1.0474 v -2.1659 z m 12.9515,12.6408 c -1.7813,0 -3.2312,-0.58 -4.3526,-1.7371 -1.1214,-1.1599 -1.6807,-2.6688 -1.6807,-4.53 0,-1.9647 0.5681,-3.5538 1.7073,-4.767 1.1393,-1.213 2.6482,-1.8196 4.5241,-1.8196 1.7754,0 3.2106,0.58 4.3053,1.7427 1.0947,1.16 1.6424,2.6927 1.6424,4.5924 0,1.9528 -0.5684,3.5269 -1.7045,4.7254 -1.1333,1.1954 -2.6158,1.7932 -4.4413,1.7932 z m 0.1213,-10.4392 c -0.9825,0 -1.7637,0.3669 -2.3405,1.1036 -0.5772,0.7367 -0.8672,1.7132 -0.8672,2.9265 0,1.2308 0.29,2.2042 0.8672,2.9205 0.5768,0.716 1.3345,1.074 2.2725,1.074 0.9646,0 1.728,-0.3492 2.2961,-1.0445 0.5652,-0.6954 0.8492,-1.6628 0.8492,-2.8999 0,-1.2872 -0.2752,-2.2901 -0.8226,-3.0061 -0.5505,-0.716 -1.302,-1.0741 -2.2547,-1.0741 z m 13.4481,9.7467 v -2.7695 c 0.5032,0.4201 1.0506,0.7337 1.6424,0.9437 0.5888,0.2103 1.1863,0.3166 1.7873,0.3166 0.352,0 0.6627,-0.0323 0.9261,-0.0946 0.2633,-0.065 0.4821,-0.1509 0.6568,-0.2662 0.1774,-0.1126 0.3106,-0.2458 0.3965,-0.3966 0.0859,-0.1539 0.1301,-0.3195 0.1301,-0.5 0,-0.2427 -0.068,-0.4587 -0.2072,-0.648 -0.1389,-0.1925 -0.3282,-0.3668 -0.5709,-0.5298 -0.2398,-0.1627 -0.5238,-0.3195 -0.8552,-0.4674 -0.3285,-0.1509 -0.6865,-0.3048 -1.0681,-0.4615 -0.9706,-0.4025 -1.6954,-0.8966 -2.1747,-1.4794 -0.4765,-0.586 -0.7163,-1.2904 -0.7163,-2.1158 0,-0.648 0.1303,-1.2042 0.3906,-1.6688 0.2605,-0.4646 0.6154,-0.8492 1.0624,-1.148 0.4467,-0.3019 0.9675,-0.521 1.5562,-0.663 0.5919,-0.142 1.2164,-0.2129 1.8731,-0.2129 0.648,0 1.2221,0.0383 1.7221,0.1182 0.5,0.0771 0.9618,0.1984 1.3847,0.3611 v 2.592 c -0.2069,-0.1451 -0.4348,-0.2721 -0.6806,-0.3818 -0.2455,-0.1122 -0.5,-0.2041 -0.7602,-0.275 -0.2605,-0.0739 -0.5179,-0.1272 -0.7753,-0.1598 -0.2574,-0.0355 -0.5032,-0.0533 -0.7339,-0.0533 -0.3195,0 -0.6066,0.0295 -0.8668,0.0918 -0.2605,0.059 -0.4825,0.1449 -0.6599,0.2543 -0.1806,0.1097 -0.3195,0.2426 -0.4173,0.3937 -0.0975,0.1537 -0.148,0.3254 -0.148,0.5176 0,0.2072 0.0562,0.3938 0.1659,0.5593 0.1094,0.1627 0.2661,0.3198 0.4674,0.4674 0.2041,0.148 0.4499,0.29 0.7398,0.4323 0.29,0.142 0.6154,0.2869 0.9794,0.4377 0.5,0.2103 0.9468,0.4292 1.3433,0.663 0.3966,0.2336 0.7368,0.5 1.0208,0.7929 0.2812,0.2959 0.5,0.6332 0.6511,1.0119 0.1508,0.3787 0.2248,0.8167 0.2248,1.3198 0,0.6954 -0.1301,1.2754 -0.3934,1.7487 -0.2634,0.4706 -0.6217,0.8521 -1.0744,1.1421 -0.4495,0.2931 -0.9734,0.5032 -1.574,0.6304 -0.5976,0.127 -1.2309,0.1894 -1.8967,0.1894 -0.6806,0 -1.3314,-0.0592 -1.9468,-0.1746 -0.6157,-0.1154 -1.1484,-0.2872 -1.6011,-0.5179 z"
     style="fill:#d9dadb;fill-rule:evenodd"
     id="path8" />
  <path
     d="m 268.4495,335.857 h -4.1639 l -5.1661,-11.7544 h 17.7726 v 8e-4 h 9.33 l -5.1661,11.7545 h -12.6065 z"
     style="fill:#e3002f;fill-rule:evenodd"
     id="path10" />
  <path
     d="m 341.1299,493.0512 -9e-4,5e-4 -0.0164,-5e-4 H 218.3027 l 10.0143,-22.8931 20.1137,-13.1095 94.3843,-58.7274 c 19.4427,-12.0974 8.9001,-62.4644 -26.2869,-62.4644 h -8.2144 l -5.1661,-11.7542 h 15.7285 c 66.2703,0 70.2519,72.5351 38.1863,90.7944 L 240.457,481.2969 h 126.1746 l 5.021,11.7543 z"
     style="fill:#e3002f;fill-rule:evenodd"
     id="path12" />
</svg>
