<?xml version="1.0" encoding="UTF-8" standalone="no"?>
<svg
   version="1.1"
   width="257.95279pt"
   height="152.50391pt"
   id="svg19"
   viewBox="0 0 257.95279 152.50391"
   sodipodi:docname="logo 2.cdr"
   xmlns:inkscape="http://www.inkscape.org/namespaces/inkscape"
   xmlns:sodipodi="http://sodipodi.sourceforge.net/DTD/sodipodi-0.dtd"
   xmlns="http://www.w3.org/2000/svg"
   xmlns:svg="http://www.w3.org/2000/svg">
  <defs
     id="defs23" />
  <sodipodi:namedview
     id="namedview21"
     pagecolor="#ffffff"
     bordercolor="#000000"
     borderopacity="0.25"
     inkscape:showpageshadow="2"
     inkscape:pageopacity="0.0"
     inkscape:pagecheckerboard="0"
     inkscape:deskcolor="#d1d1d1"
     inkscape:document-units="pt" />
  <path
     d="M 0.1506,2e-4 V 152.5041 H 257.802 V 2e-4 Z"
     style="fill:#024f5f;fill-rule:evenodd"
     id="path2" />
  <path
     d="m 88.1289,131.2903 -1.1152,3.7213 H 86.396 l -0.7667,-2.6631 c -0.0284,-0.1029 -0.0482,-0.2172 -0.0582,-0.3461 h -0.015 c -0.0062,0.0881 -0.0323,0.1995 -0.0757,0.3384 l -0.8322,2.6708 h -0.5956 l -1.1262,-3.7213 h 0.6253 l 0.7702,2.7984 c 0.0235,0.0844 0.0408,0.1961 0.0508,0.3336 h 0.0286 c 0.0074,-0.1066 0.0298,-0.2194 0.0658,-0.341 l 0.8572,-2.791 h 0.5445 l 0.7702,2.806 c 0.0249,0.0893 0.0422,0.2007 0.0547,0.3337 h 0.0297 c 0.0037,-0.0944 0.025,-0.2061 0.0607,-0.3337 l 0.7568,-2.806 z m 5.7149,0 -1.1152,3.7213 H 92.111 l -0.7668,-2.6631 c -0.0284,-0.1029 -0.0482,-0.2172 -0.0581,-0.3461 h -0.015 c -0.0063,0.0881 -0.0324,0.1995 -0.0757,0.3384 l -0.8323,2.6708 h -0.5955 l -1.1262,-3.7213 h 0.6253 l 0.7702,2.7984 c 0.0235,0.0844 0.0408,0.1961 0.0507,0.3336 h 0.0286 c 0.0074,-0.1066 0.0298,-0.2194 0.0658,-0.341 l 0.8572,-2.791 h 0.5445 l 0.7702,2.806 c 0.0249,0.0893 0.0422,0.2007 0.0547,0.3337 h 0.0298 c 0.0036,-0.0944 0.0249,-0.2061 0.0606,-0.3337 l 0.7569,-2.806 z m 5.7149,0 -1.1151,3.7213 h -0.6177 l -0.7668,-2.6631 c -0.0283,-0.1029 -0.0482,-0.2172 -0.0581,-0.3461 h -0.015 c -0.0063,0.0881 -0.0323,0.1995 -0.0757,0.3384 l -0.8323,2.6708 h -0.5955 l -1.1262,-3.7213 h 0.6253 l 0.7702,2.7984 c 0.0235,0.0844 0.0408,0.1961 0.0507,0.3336 h 0.0286 c 0.0074,-0.1066 0.0298,-0.2194 0.0658,-0.341 l 0.8572,-2.791 h 0.5445 l 0.7702,2.806 c 0.025,0.0893 0.0423,0.2007 0.0547,0.3337 h 0.0298 c 0.0037,-0.0944 0.0249,-0.2061 0.0607,-0.3337 l 0.7568,-2.806 z m 1.2345,3.8032 c -0.1106,0 -0.2061,-0.0396 -0.284,-0.1204 -0.0783,-0.0794 -0.118,-0.1761 -0.118,-0.2877 0,-0.1117 0.0397,-0.2073 0.118,-0.2889 0.0779,-0.0808 0.1734,-0.1216 0.284,-0.1216 0.1139,0 0.2095,0.0408 0.2903,0.1216 0.0793,0.0816 0.119,0.1772 0.119,0.2889 0,0.1116 -0.0397,0.2083 -0.119,0.2877 -0.0808,0.0808 -0.1764,0.1204 -0.2903,0.1204 z m 4.4062,-0.0819 h -0.5953 V 134.43 h -0.015 c -0.2591,0.4475 -0.6401,0.6709 -1.1449,0.6709 -0.3708,0 -0.6611,-0.0981 -0.8708,-0.2951 -0.2095,-0.1961 -0.3138,-0.4566 -0.3138,-0.7815 0,-0.6959 0.4093,-1.1015 1.2282,-1.2158 l 1.1163,-0.1562 c 0,-0.6352 -0.2557,-0.9527 -0.7665,-0.9527 -0.4479,0 -0.8524,0.1539 -1.2132,0.4615 v -0.6103 c 0.3659,-0.2333 0.7863,-0.3498 1.2639,-0.3498 0.8745,0 1.3111,0.4626 1.3111,1.3893 z m -0.5953,-1.883 -0.898,0.1241 c -0.2767,0.0383 -0.485,0.108 -0.6253,0.2058 -0.1401,0.0992 -0.2109,0.273 -0.2109,0.5236 0,0.1822 0.0646,0.3311 0.1947,0.4464 0.129,0.1154 0.3027,0.1738 0.5173,0.1738 0.2965,0 0.5409,-0.1043 0.7331,-0.3112 0.1924,-0.2087 0.2891,-0.4714 0.2891,-0.7903 z m 4.2576,-1.9625 c 0,-0.1598 -0.0249,-0.2987 -0.0745,-0.4178 -0.0496,-0.1179 -0.1179,-0.2171 -0.2035,-0.2954 -0.0868,-0.0793 -0.1871,-0.1377 -0.3039,-0.176 -0.1165,-0.0385 -0.2432,-0.0584 -0.3784,-0.0584 -0.1165,0 -0.2305,0.0162 -0.3422,0.0471 -0.1117,0.0312 -0.2197,0.0745 -0.3251,0.1304 -0.1055,0.0544 -0.2072,0.1216 -0.305,0.1984 -0.0992,0.0768 -0.19,0.1624 -0.2756,0.2568 v -0.6389 c 0.1676,-0.1613 0.3549,-0.2852 0.5633,-0.3708 0.2072,-0.0856 0.4601,-0.129 0.7591,-0.129 0.2135,0 0.4107,0.0309 0.593,0.093 0.1823,0.0607 0.3399,0.1514 0.4737,0.2704 0.1329,0.1191 0.2384,0.2654 0.3152,0.4391 0.0757,0.1749 0.1142,0.3748 0.1142,0.6004 0,0.2058 -0.0238,0.392 -0.0708,0.5596 -0.0471,0.1661 -0.1191,0.3237 -0.2146,0.4711 -0.0955,0.1491 -0.2172,0.2902 -0.3623,0.4255 -0.1451,0.1366 -0.3163,0.2744 -0.5122,0.4144 -0.2458,0.1749 -0.4465,0.3237 -0.6055,0.4464 -0.1587,0.1242 -0.2852,0.2396 -0.3781,0.3476 -0.0944,0.1077 -0.1588,0.2157 -0.1973,0.3237 -0.0372,0.1077 -0.0559,0.2319 -0.0559,0.3722 h 2.5963 v 0.5357 h -3.2213 v -0.2579 c 0,-0.2234 0.0247,-0.4193 0.0731,-0.5894 0.0482,-0.1697 0.1276,-0.3299 0.2393,-0.4835 0.1117,-0.1528 0.2582,-0.3053 0.4379,-0.4578 0.1812,-0.1525 0.4031,-0.3252 0.665,-0.5162 0.1885,-0.1352 0.3473,-0.2654 0.4737,-0.3881 0.1278,-0.1241 0.2296,-0.248 0.3076,-0.371 0.0782,-0.1239 0.1329,-0.2492 0.1649,-0.3771 0.0338,-0.1264 0.0499,-0.2616 0.0499,-0.4045 z m 4.6829,3.678 c -0.2852,0.1712 -0.6251,0.2568 -1.0171,0.2568 -0.5309,0 -0.959,-0.1723 -1.2852,-0.5184 -0.3263,-0.3462 -0.4887,-0.794 -0.4887,-1.3448 0,-0.6126 0.176,-1.1064 0.5272,-1.4786 0.3509,-0.3721 0.8198,-0.5581 1.4066,-0.5581 0.3262,0 0.6154,0.0607 0.8645,0.1811 v 0.6078 c -0.2766,-0.1936 -0.5717,-0.2903 -0.8869,-0.2903 -0.3807,0 -0.692,0.1364 -0.9363,0.4108 -0.2432,0.2727 -0.3648,0.6324 -0.3648,1.0766 0,0.4379 0.1142,0.7826 0.3435,1.0357 0.2282,0.2532 0.5361,0.3796 0.9219,0.3796 0.3237,0 0.6301,-0.108 0.9153,-0.3237 z m 2.7912,0.2568 c -0.5493,0 -0.9884,-0.1738 -1.3161,-0.5221 -0.3285,-0.3476 -0.4924,-0.8088 -0.4924,-1.3845 0,-0.625 0.1713,-1.1137 0.5123,-1.466 0.3413,-0.3513 0.8027,-0.5273 1.3844,-0.5273 0.5545,0 0.9873,0.1712 1.2988,0.5136 0.3113,0.3411 0.4663,0.815 0.4663,1.4213 0,0.5945 -0.1675,1.0707 -0.5037,1.4278 -0.3348,0.3586 -0.7852,0.5372 -1.3496,0.5372 z m 0.0448,-3.4013 c -0.3832,0 -0.686,0.1304 -0.9093,0.3921 -0.222,0.2616 -0.3337,0.6213 -0.3337,1.0817 0,0.4416 0.1129,0.7914 0.3374,1.0457 0.2259,0.2554 0.5272,0.3832 0.9056,0.3832 0.3844,0 0.6809,-0.1253 0.8881,-0.3759 0.2072,-0.2506 0.3101,-0.6066 0.3101,-1.0681 0,-0.4663 -0.1029,-0.826 -0.3101,-1.0791 -0.2072,-0.2532 -0.5037,-0.3796 -0.8881,-0.3796 z m 6.1864,3.312 h -0.5956 v -2.1248 c 0,-0.7915 -0.2888,-1.1872 -0.8657,-1.1872 -0.2976,0 -0.5445,0.1117 -0.7393,0.3362 -0.1947,0.2245 -0.2928,0.5085 -0.2928,0.851 v 2.1248 h -0.5953 v -3.7213 h 0.5953 v 0.6177 h 0.015 c 0.2804,-0.4714 0.6871,-0.707 1.2206,-0.707 0.4068,0 0.718,0.1315 0.934,0.3943 0.2158,0.2631 0.3238,0.6426 0.3238,1.1401 z m 1.237,-0.1341 v -0.64 c 0.3237,0.2432 0.6809,0.3648 1.0706,0.3648 0.5222,0 0.7827,-0.176 0.7827,-0.5272 0,-0.0993 -0.0224,-0.1837 -0.0672,-0.2532 -0.0445,-0.0694 -0.1052,-0.1301 -0.1808,-0.1834 -0.0771,-0.0533 -0.1664,-0.1017 -0.2693,-0.144 -0.1018,-0.0422 -0.2135,-0.0867 -0.3311,-0.1326 -0.165,-0.0658 -0.309,-0.1316 -0.4332,-0.1985 -0.1252,-0.0671 -0.2293,-0.1414 -0.3123,-0.2259 -0.0834,-0.083 -0.1466,-0.1786 -0.1888,-0.2852 -0.042,-0.1065 -0.0632,-0.2318 -0.0632,-0.3747 0,-0.1749 0.0397,-0.3285 0.119,-0.4637 0.0808,-0.1341 0.1874,-0.2469 0.3201,-0.3388 0.1329,-0.0904 0.2843,-0.1587 0.4552,-0.2046 0.1701,-0.046 0.3461,-0.0695 0.5272,-0.0695 0.3215,0 0.6092,0.0544 0.8635,0.1639 v 0.6026 c -0.273,-0.1786 -0.5868,-0.2679 -0.9428,-0.2679 -0.1103,0 -0.2109,0.0125 -0.3002,0.0386 -0.0893,0.0261 -0.1661,0.0621 -0.2308,0.1077 -0.0632,0.0459 -0.1128,0.1018 -0.1488,0.1664 -0.0346,0.0643 -0.0521,0.1363 -0.0521,0.2146 0,0.0966 0.0175,0.1785 0.0521,0.2443 0.036,0.0646 0.0868,0.1228 0.1551,0.1738 0.0669,0.0507 0.1502,0.0978 0.2457,0.1389 0.0967,0.0408 0.207,0.0856 0.33,0.1338 0.165,0.0632 0.3124,0.1278 0.4428,0.1947 0.1301,0.0672 0.2418,0.1429 0.3336,0.2259 0.0919,0.0831 0.1624,0.1797 0.212,0.2889 0.0496,0.1091 0.0746,0.2395 0.0746,0.3895 0,0.1848 -0.0411,0.3449 -0.1216,0.4802 -0.0805,0.1363 -0.1899,0.2494 -0.3251,0.3387 -0.1353,0.0893 -0.2915,0.1562 -0.4675,0.1995 -0.1763,0.0434 -0.3623,0.0658 -0.5559,0.0658 -0.3821,0 -0.7132,-0.0743 -0.9935,-0.2234 z m 5.2733,0.2234 c -0.5494,0 -0.9884,-0.1738 -1.3161,-0.5221 -0.3286,-0.3476 -0.4924,-0.8088 -0.4924,-1.3845 0,-0.625 0.1712,-1.1137 0.5122,-1.466 0.3413,-0.3513 0.8028,-0.5273 1.3844,-0.5273 0.5545,0 0.9874,0.1712 1.2989,0.5136 0.3112,0.3411 0.4663,0.815 0.4663,1.4213 0,0.5945 -0.1675,1.0707 -0.5037,1.4278 -0.3348,0.3586 -0.7852,0.5372 -1.3496,0.5372 z m 0.0448,-3.4013 c -0.3833,0 -0.686,0.1304 -0.9094,0.3921 -0.2219,0.2616 -0.3336,0.6213 -0.3336,1.0817 0,0.4416 0.1128,0.7914 0.3373,1.0457 0.2259,0.2554 0.5273,0.3832 0.9057,0.3832 0.3844,0 0.6809,-0.1253 0.8881,-0.3759 0.2072,-0.2506 0.3101,-0.6066 0.3101,-1.0681 0,-0.4663 -0.1029,-0.826 -0.3101,-1.0791 -0.2072,-0.2532 -0.5037,-0.3796 -0.8881,-0.3796 z m 5.0403,0.1948 c -0.1044,-0.0805 -0.2546,-0.1202 -0.4516,-0.1202 -0.2543,0 -0.4677,0.1202 -0.6389,0.3597 -0.1712,0.2392 -0.2568,0.5669 -0.2568,0.9811 v 1.8966 h -0.5953 v -3.7213 h 0.5953 v 0.7665 h 0.015 c 0.0842,-0.2617 0.2146,-0.4663 0.3895,-0.6126 0.1749,-0.1477 0.3696,-0.2208 0.5853,-0.2208 0.1565,0 0.2755,0.0173 0.3575,0.0507 z m 3.5192,2.9497 c -0.2852,0.1712 -0.6251,0.2568 -1.0171,0.2568 -0.5309,0 -0.959,-0.1723 -1.2852,-0.5184 -0.3263,-0.3462 -0.4887,-0.794 -0.4887,-1.3448 0,-0.6126 0.176,-1.1064 0.5272,-1.4786 0.351,-0.3721 0.8198,-0.5581 1.4066,-0.5581 0.3262,0 0.6154,0.0607 0.8645,0.1811 v 0.6078 c -0.2766,-0.1936 -0.5717,-0.2903 -0.8869,-0.2903 -0.3807,0 -0.692,0.1364 -0.9363,0.4108 -0.2432,0.2727 -0.3648,0.6324 -0.3648,1.0766 0,0.4379 0.1142,0.7826 0.3435,1.0357 0.2282,0.2532 0.5361,0.3796 0.9219,0.3796 0.3237,0 0.6301,-0.108 0.9153,-0.3237 z m 1.5409,-4.4992 c -0.1066,0 -0.1984,-0.0357 -0.2741,-0.1091 -0.0757,-0.0717 -0.1128,-0.165 -0.1128,-0.2764 0,-0.1105 0.0371,-0.2035 0.1128,-0.278 0.0757,-0.0732 0.1675,-0.1103 0.2741,-0.1103 0.1091,0 0.2024,0.0371 0.2792,0.1103 0.0768,0.0745 0.1154,0.1675 0.1154,0.278 0,0.1066 -0.0386,0.1985 -0.1154,0.2727 -0.0768,0.0757 -0.1701,0.1128 -0.2792,0.1128 z m 0.2903,4.6667 h -0.5953 v -3.7213 h 0.5953 z m 3.0988,0.0893 c -0.5494,0 -0.9885,-0.1738 -1.3161,-0.5221 -0.3286,-0.3476 -0.4924,-0.8088 -0.4924,-1.3845 0,-0.625 0.1712,-1.1137 0.5122,-1.466 0.3413,-0.3513 0.8028,-0.5273 1.3844,-0.5273 0.5545,0 0.9874,0.1712 1.2989,0.5136 0.3112,0.3411 0.4663,0.815 0.4663,1.4213 0,0.5945 -0.1675,1.0707 -0.5037,1.4278 -0.3348,0.3586 -0.7852,0.5372 -1.3496,0.5372 z m 0.0448,-3.4013 c -0.3833,0 -0.686,0.1304 -0.9094,0.3921 -0.2219,0.2616 -0.3336,0.6213 -0.3336,1.0817 0,0.4416 0.1128,0.7914 0.3373,1.0457 0.2259,0.2554 0.5273,0.3832 0.9057,0.3832 0.3844,0 0.6809,-0.1253 0.8881,-0.3759 0.2072,-0.2506 0.3101,-0.6066 0.3101,-1.0681 0,-0.4663 -0.1029,-0.826 -0.3101,-1.0791 -0.2072,-0.2532 -0.5037,-0.3796 -0.8881,-0.3796 z m 2.8743,3.1779 v -0.64 c 0.3237,0.2432 0.6809,0.3648 1.0707,0.3648 0.5221,0 0.7826,-0.176 0.7826,-0.5272 0,-0.0993 -0.0224,-0.1837 -0.0672,-0.2532 -0.0445,-0.0694 -0.1051,-0.1301 -0.1808,-0.1834 -0.0771,-0.0533 -0.1664,-0.1017 -0.2693,-0.144 -0.1018,-0.0422 -0.2135,-0.0867 -0.3311,-0.1326 -0.165,-0.0658 -0.309,-0.1316 -0.4331,-0.1985 -0.1253,-0.0671 -0.2294,-0.1414 -0.3124,-0.2259 -0.0834,-0.083 -0.1466,-0.1786 -0.1888,-0.2852 -0.042,-0.1065 -0.0632,-0.2318 -0.0632,-0.3747 0,-0.1749 0.0397,-0.3285 0.119,-0.4637 0.0808,-0.1341 0.1874,-0.2469 0.3201,-0.3388 0.1329,-0.0904 0.2843,-0.1587 0.4552,-0.2046 0.1701,-0.046 0.3461,-0.0695 0.5273,-0.0695 0.3214,0 0.6091,0.0544 0.8634,0.1639 v 0.6026 c -0.273,-0.1786 -0.5868,-0.2679 -0.9428,-0.2679 -0.1103,0 -0.2109,0.0125 -0.3002,0.0386 -0.0893,0.0261 -0.1661,0.0621 -0.2307,0.1077 -0.0633,0.0459 -0.1129,0.1018 -0.1489,0.1664 -0.0345,0.0643 -0.0521,0.1363 -0.0521,0.2146 0,0.0966 0.0176,0.1785 0.0521,0.2443 0.036,0.0646 0.0868,0.1228 0.1551,0.1738 0.0669,0.0507 0.1502,0.0978 0.2458,0.1389 0.0966,0.0408 0.2069,0.0856 0.3299,0.1338 0.165,0.0632 0.3124,0.1278 0.4428,0.1947 0.1301,0.0672 0.2418,0.1429 0.3336,0.2259 0.0919,0.0831 0.1624,0.1797 0.212,0.2889 0.0497,0.1091 0.0746,0.2395 0.0746,0.3895 0,0.1848 -0.0411,0.3449 -0.1216,0.4802 -0.0805,0.1363 -0.1899,0.2494 -0.3251,0.3387 -0.1353,0.0893 -0.2914,0.1562 -0.4675,0.1995 -0.1763,0.0434 -0.3622,0.0658 -0.5558,0.0658 -0.3822,0 -0.7132,-0.0743 -0.9936,-0.2234 z m 3.9263,0.216 c -0.1106,0 -0.2061,-0.0396 -0.2841,-0.1204 -0.0782,-0.0794 -0.1179,-0.1761 -0.1179,-0.2877 0,-0.1117 0.0397,-0.2073 0.1179,-0.2889 0.078,-0.0808 0.1735,-0.1216 0.2841,-0.1216 0.1139,0 0.2095,0.0408 0.2902,0.1216 0.0794,0.0816 0.1191,0.1772 0.1191,0.2889 0,0.1116 -0.0397,0.2083 -0.1191,0.2877 -0.0807,0.0808 -0.1763,0.1204 -0.2902,0.1204 z m 4.2797,-0.2494 c -0.2851,0.1712 -0.625,0.2568 -1.017,0.2568 -0.531,0 -0.959,-0.1723 -1.2853,-0.5184 -0.3262,-0.3462 -0.4887,-0.794 -0.4887,-1.3448 0,-0.6126 0.1761,-1.1064 0.5273,-1.4786 0.3509,-0.3721 0.8198,-0.5581 1.4065,-0.5581 0.3263,0 0.6154,0.0607 0.8646,0.1811 v 0.6078 c -0.2767,-0.1936 -0.5718,-0.2903 -0.887,-0.2903 -0.3807,0 -0.6919,0.1364 -0.9362,0.4108 -0.2433,0.2727 -0.3649,0.6324 -0.3649,1.0766 0,0.4379 0.1143,0.7826 0.3436,1.0357 0.2282,0.2532 0.536,0.3796 0.9218,0.3796 0.3237,0 0.6302,-0.108 0.9153,-0.3237 z m 2.7913,0.2568 c -0.5494,0 -0.9884,-0.1738 -1.3161,-0.5221 -0.3286,-0.3476 -0.4924,-0.8088 -0.4924,-1.3845 0,-0.625 0.1712,-1.1137 0.5122,-1.466 0.3413,-0.3513 0.8028,-0.5273 1.3845,-0.5273 0.5544,0 0.9873,0.1712 1.2988,0.5136 0.3112,0.3411 0.4663,0.815 0.4663,1.4213 0,0.5945 -0.1675,1.0707 -0.5037,1.4278 -0.3348,0.3586 -0.7852,0.5372 -1.3496,0.5372 z m 0.0448,-3.4013 c -0.3833,0 -0.686,0.1304 -0.9094,0.3921 -0.2219,0.2616 -0.3336,0.6213 -0.3336,1.0817 0,0.4416 0.1128,0.7914 0.3373,1.0457 0.2259,0.2554 0.5273,0.3832 0.9057,0.3832 0.3844,0 0.6809,-0.1253 0.8881,-0.3759 0.2072,-0.2506 0.3101,-0.6066 0.3101,-1.0681 0,-0.4663 -0.1029,-0.826 -0.3101,-1.0791 -0.2072,-0.2532 -0.5037,-0.3796 -0.8881,-0.3796 z m 8.3818,3.312 h -0.5953 v -2.1399 c 0,-0.413 -0.0632,-0.7106 -0.1911,-0.8954 -0.1264,-0.1848 -0.341,-0.2767 -0.6412,-0.2767 -0.2542,0 -0.4714,0.1165 -0.65,0.3498 -0.1774,0.2319 -0.2667,0.5111 -0.2667,0.8374 v 2.1248 h -0.5956 v -2.213 c 0,-0.733 -0.2826,-1.099 -0.847,-1.099 -0.2619,0 -0.4776,0.1106 -0.6477,0.33 -0.1698,0.2197 -0.2542,0.5048 -0.2542,0.8572 v 2.1248 h -0.5953 v -3.7213 h 0.5953 v 0.5842 h 0.015 c 0.2642,-0.449 0.6486,-0.6735 1.156,-0.6735 0.2542,0 0.475,0.0706 0.665,0.212 0.1885,0.1415 0.3186,0.3263 0.388,0.5559 0.2767,-0.5125 0.6886,-0.7679 1.2368,-0.7679 0.8186,0 1.228,0.5049 1.228,1.5157 z m 1.6713,0.0819 c -0.1106,0 -0.2061,-0.0396 -0.2841,-0.1204 -0.0782,-0.0794 -0.1179,-0.1761 -0.1179,-0.2877 0,-0.1117 0.0397,-0.2073 0.1179,-0.2889 0.078,-0.0808 0.1735,-0.1216 0.2841,-0.1216 0.1139,0 0.2094,0.0408 0.2902,0.1216 0.0794,0.0816 0.1191,0.1772 0.1191,0.2889 0,0.1116 -0.0397,0.2083 -0.1191,0.2877 -0.0808,0.0808 -0.1763,0.1204 -0.2902,0.1204 z m 2.3521,-0.6154 h -0.015 v 0.5335 h -0.5953 v -5.5074 h 0.5953 v 2.4361 h 0.015 c 0.2926,-0.4924 0.722,-0.7393 1.2864,-0.7393 0.4774,0 0.851,0.1661 1.1214,0.4998 0.2704,0.3339 0.4053,0.7803 0.4053,1.341 0,0.6228 -0.151,1.1225 -0.4538,1.4973 -0.3039,0.3744 -0.7183,0.5618 -1.2441,0.5618 -0.4912,0 -0.8634,-0.2072 -1.1152,-0.6228 z m -0.015,-1.5057 v 0.521 c 0,0.3087 0.1007,0.5706 0.3002,0.7863 0.1999,0.2146 0.4541,0.3226 0.7617,0.3226 0.3608,0 0.6437,-0.1389 0.8484,-0.4156 0.2047,-0.2778 0.3078,-0.6624 0.3078,-1.1559 0,-0.4156 -0.0955,-0.7419 -0.288,-0.9777 -0.191,-0.2356 -0.4501,-0.3535 -0.7775,-0.3535 -0.3461,0 -0.6253,0.1205 -0.8362,0.3623 -0.2109,0.2418 -0.3164,0.5457 -0.3164,0.9105 z m 6.0588,-1.078 c -0.1043,-0.0805 -0.2546,-0.1202 -0.4516,-0.1202 -0.2542,0 -0.4677,0.1202 -0.6389,0.3597 -0.1712,0.2392 -0.2568,0.5669 -0.2568,0.9811 v 1.8966 h -0.5953 v -3.7213 h 0.5953 v 0.7665 h 0.015 c 0.0842,-0.2617 0.2146,-0.4663 0.3895,-0.6126 0.1749,-0.1477 0.3696,-0.2208 0.5853,-0.2208 0.1565,0 0.2756,0.0173 0.3575,0.0507 z"
     style="fill:#ffffff;fill-rule:evenodd"
     id="path4" />
  <g
     id="Layer1000">
    <path
       d="m 115.3935,36.3777 h -1.951 l -2.4206,-5.5075 h 8.3273 v 4e-4 h 4.3715 l -2.4205,5.5075 h -5.9067 z"
       style="fill:#ffffff;fill-rule:evenodd"
       id="path6" />
    <path
       d="m 142.6651,102.1102 -6.2257,-14.2635 14.0869,-8.0219 9.7555,22.2854 z"
       style="fill:#ffffff;fill-rule:evenodd"
       id="path8" />
    <path
       d="m 98.3518,95.2752 20.791,-47.5299 7.1357,-16.8751 h 0.2193 2.5177 l 1.4424,3.2817 14.1055,32.1818 -13.7588,8.5609 -8.4656,-19.1904 -14.6258,33.5582 -2.9958,1.864 z"
       style="fill:#ffffff;fill-rule:evenodd"
       id="path10" />
    <path
       d="m 93.4724,121.2934 c -0.4297,0.2273 -0.9663,0.341 -1.6069,0.341 -0.8275,0 -1.4902,-0.2662 -1.988,-0.8 -0.4977,-0.5337 -0.7472,-1.2353 -0.7472,-2.1016 0,-0.9317 0.2801,-1.6846 0.8402,-2.2598 0.5601,-0.574 1.2699,-0.8611 2.1308,-0.8611 0.5516,0 1.0092,0.0805 1.3711,0.2412 v 0.7237 c -0.4158,-0.2327 -0.8761,-0.3492 -1.3793,-0.3492 -0.6684,0 -1.209,0.223 -1.6248,0.6709 -0.4147,0.4465 -0.6225,1.044 -0.6225,1.7912 0,0.7098 0.1939,1.2756 0.5822,1.6969 0.3881,0.4215 0.8969,0.6324 1.5276,0.6324 0.5837,0 1.0899,-0.1304 1.5168,-0.3912 z m 6.7712,0.341 c -0.8249,0 -1.4862,-0.2716 -1.9826,-0.8167 -0.4978,-0.5448 -0.7458,-1.2532 -0.7458,-2.1251 0,-0.9372 0.2537,-1.6858 0.7597,-2.2434 0.506,-0.5587 1.1951,-0.8373 2.067,-0.8373 0.8042,0 1.4516,0.2704 1.9423,0.8124 0.4924,0.5423 0.7376,1.2506 0.7376,2.1254 0,0.951 -0.2523,1.7025 -0.7554,2.2555 -0.5035,0.5534 -1.1773,0.8292 -2.0228,0.8292 z m 0.0498,-5.4068 c -0.6128,0 -1.1091,0.2205 -1.4904,0.6627 -0.3813,0.4408 -0.5723,1.0216 -0.5723,1.7385 0,0.718 0.1856,1.2963 0.5587,1.7342 0.3713,0.4368 0.8566,0.656 1.4542,0.656 0.6392,0 1.1423,-0.2081 1.5111,-0.6254 0.3674,-0.4172 0.5519,-1.0009 0.5519,-1.7523 0,-0.7696 -0.1789,-1.3644 -0.5366,-1.7844 -0.3563,-0.4201 -0.8498,-0.6293 -1.4766,-0.6293 z m 11.801,5.307 h -0.8346 l -2.9959,-4.6417 c -0.0762,-0.1163 -0.1386,-0.2384 -0.1871,-0.3646 h -0.0235 c 0.0207,0.1233 0.0317,0.3909 0.0317,0.8 v 4.2063 h -0.682 v -5.8227 h 0.883 l 2.9157,4.5681 c 0.1219,0.1899 0.1996,0.3189 0.2356,0.3894 h 0.0153 c -0.0264,-0.1678 -0.0403,-0.4532 -0.0403,-0.8566 v -4.1009 h 0.6821 z m 4.4906,-0.233 v -0.8068 c 0.0916,0.0817 0.2024,0.154 0.3314,0.2192 0.1275,0.0649 0.2636,0.1204 0.4048,0.1649 0.1428,0.0442 0.2843,0.0788 0.4286,0.1038 0.1425,0.0238 0.2758,0.0363 0.3977,0.0363 0.4186,0 0.7322,-0.0777 0.9385,-0.233 0.2067,-0.1554 0.3107,-0.3799 0.3107,-0.671 0,-0.1582 -0.0346,-0.294 -0.104,-0.4105 -0.0678,-0.1165 -0.1636,-0.2231 -0.2855,-0.3189 -0.1222,-0.0969 -0.2662,-0.1885 -0.4326,-0.2772 -0.1663,-0.0873 -0.3452,-0.1803 -0.5366,-0.2772 -0.2038,-0.1041 -0.3923,-0.2081 -0.5683,-0.3132 -0.176,-0.1055 -0.3285,-0.222 -0.4589,-0.3496 -0.129,-0.1275 -0.2316,-0.2718 -0.3065,-0.4325 -0.0734,-0.1622 -0.1108,-0.3507 -0.1108,-0.567 0,-0.2661 0.0581,-0.4963 0.1746,-0.6933 0.1165,-0.1967 0.269,-0.3589 0.459,-0.485 0.1899,-0.1276 0.4047,-0.2234 0.6474,-0.2857 0.2426,-0.0624 0.4892,-0.093 0.7415,-0.093 0.574,0 0.9927,0.0694 1.2549,0.208 v 0.7654 c -0.3438,-0.2384 -0.7849,-0.3577 -1.324,-0.3577 -0.1483,0 -0.2968,0.0153 -0.4465,0.047 -0.1482,0.0306 -0.2815,0.0819 -0.398,0.1525 -0.1162,0.0709 -0.2106,0.1622 -0.284,0.2733 -0.0734,0.1108 -0.1097,0.2466 -0.1097,0.4076 0,0.1483 0.0278,0.2772 0.0833,0.3852 0.0553,0.1083 0.1372,0.2081 0.2452,0.2968 0.1083,0.0902 0.2401,0.176 0.3952,0.2605 0.1553,0.0834 0.3356,0.1761 0.538,0.2761 0.2081,0.1026 0.4062,0.2106 0.5919,0.3257 0.1873,0.1137 0.3509,0.2384 0.4909,0.377 0.1415,0.1386 0.2523,0.2911 0.3354,0.459 0.0819,0.1678 0.1236,0.3605 0.1236,0.5782 0,0.2869 -0.0556,0.5295 -0.1679,0.7291 -0.1122,0.1984 -0.2647,0.3606 -0.4546,0.4853 -0.1914,0.1247 -0.4119,0.2148 -0.6599,0.2704 -0.2498,0.0553 -0.5117,0.0831 -0.7875,0.0831 -0.0916,0 -0.2052,-0.007 -0.3413,-0.0221 -0.1358,-0.0154 -0.273,-0.036 -0.4144,-0.0652 -0.14,-0.0278 -0.273,-0.0638 -0.3991,-0.1055 -0.1265,-0.0414 -0.2262,-0.0887 -0.3025,-0.14 z m 10.2747,0.3328 c -0.8248,0 -1.4862,-0.2716 -1.9825,-0.8167 -0.4978,-0.5448 -0.7458,-1.2532 -0.7458,-2.1251 0,-0.9372 0.2537,-1.6858 0.7597,-2.2434 0.506,-0.5587 1.1951,-0.8373 2.067,-0.8373 0.8042,0 1.4516,0.2704 1.9423,0.8124 0.4924,0.5423 0.7376,1.2506 0.7376,2.1254 0,0.951 -0.2523,1.7025 -0.7554,2.2555 -0.5035,0.5534 -1.1773,0.8292 -2.0229,0.8292 z m 0.0499,-5.4068 c -0.6128,0 -1.1092,0.2205 -1.4904,0.6627 -0.3813,0.4408 -0.5723,1.0216 -0.5723,1.7385 0,0.718 0.1856,1.2963 0.5587,1.7342 0.3713,0.4368 0.8566,0.656 1.4541,0.656 0.6393,0 1.1424,-0.2081 1.5112,-0.6254 0.3674,-0.4172 0.5519,-1.0009 0.5519,-1.7523 0,-0.7696 -0.1789,-1.3644 -0.5366,-1.7844 -0.3563,-0.4201 -0.8498,-0.6293 -1.4766,-0.6293 z m 1.0148,-2.3874 -1.0647,1.3309 h -0.5156 l 0.9065,-1.3309 z m 10.2705,7.6944 h -0.8152 l -0.9746,-1.6331 c -0.0887,-0.1525 -0.1746,-0.2814 -0.2593,-0.3883 -0.0831,-0.1066 -0.169,-0.1942 -0.2577,-0.2619 -0.0876,-0.0681 -0.1831,-0.1179 -0.2843,-0.1486 -0.1012,-0.0317 -0.2149,-0.047 -0.3424,-0.047 h -0.5602 v 2.4789 h -0.682 v -5.8227 h 1.7385 c 0.2551,0 0.4893,0.0318 0.7055,0.0956 0.2149,0.0637 0.4023,0.1593 0.5602,0.2897 0.1581,0.1304 0.2829,0.2911 0.3716,0.4853 0.0901,0.1941 0.1344,0.4201 0.1344,0.6791 0,0.2038 -0.0304,0.3898 -0.0913,0.5587 -0.0612,0.1693 -0.1486,0.3204 -0.2608,0.4522 -0.1123,0.1329 -0.248,0.2455 -0.4062,0.3396 -0.1593,0.0929 -0.3382,0.1649 -0.5352,0.2162 v 0.0168 c 0.0972,0.0428 0.1817,0.0927 0.2523,0.1482 0.0723,0.0556 0.14,0.1219 0.2052,0.197 0.0652,0.0763 0.1304,0.1622 0.1928,0.2577 0.0638,0.0972 0.1343,0.2081 0.2134,0.3356 z m -3.4937,-5.2073 v 2.113 h 0.9261 c 0.1707,0 0.3285,-0.0264 0.4742,-0.0777 0.144,-0.0513 0.2702,-0.1247 0.3756,-0.2205 0.1055,-0.097 0.1885,-0.2149 0.2483,-0.3535 0.0596,-0.14 0.0888,-0.2968 0.0888,-0.47 0,-0.3118 -0.1012,-0.5544 -0.3025,-0.7293 -0.2024,-0.1747 -0.4935,-0.262 -0.8762,-0.262 z m 11.4877,4.9661 c -0.4297,0.2273 -0.9663,0.341 -1.6069,0.341 -0.8275,0 -1.4902,-0.2662 -1.988,-0.8 -0.4977,-0.5337 -0.7472,-1.2353 -0.7472,-2.1016 0,-0.9317 0.2801,-1.6846 0.8402,-2.2598 0.5601,-0.574 1.2699,-0.8611 2.1308,-0.8611 0.5516,0 1.0091,0.0805 1.3711,0.2412 v 0.7237 c -0.4158,-0.2327 -0.8762,-0.3492 -1.3793,-0.3492 -0.6684,0 -1.209,0.223 -1.6248,0.6709 -0.4148,0.4465 -0.6225,1.044 -0.6225,1.7912 0,0.7098 0.1939,1.2756 0.5822,1.6969 0.3881,0.4215 0.8969,0.6324 1.5276,0.6324 0.5836,0 1.0899,-0.1304 1.5168,-0.3912 z m 5.673,-5.5815 v 0.5823 h -0.5655 v 4.6581 h 0.5655 v 0.5823 h -1.8133 v -0.5823 h 0.5658 v -4.6581 h -0.5658 v -0.5823 z m 6.5469,5.9225 c -0.8249,0 -1.4862,-0.2716 -1.9826,-0.8167 -0.4977,-0.5448 -0.7458,-1.2532 -0.7458,-2.1251 0,-0.9372 0.2537,-1.6858 0.7597,-2.2434 0.506,-0.5587 1.1951,-0.8373 2.067,-0.8373 0.8042,0 1.4517,0.2704 1.9423,0.8124 0.4924,0.5423 0.7376,1.2506 0.7376,2.1254 0,0.951 -0.2523,1.7025 -0.7554,2.2555 -0.5034,0.5534 -1.1772,0.8292 -2.0228,0.8292 z m 0.0499,-5.4068 c -0.6129,0 -1.1092,0.2205 -1.4905,0.6627 -0.3812,0.4408 -0.5723,1.0216 -0.5723,1.7385 0,0.718 0.1857,1.2963 0.5587,1.7342 0.3714,0.4368 0.8566,0.656 1.4542,0.656 0.6392,0 1.1423,-0.2081 1.5111,-0.6254 0.3674,-0.4172 0.5519,-1.0009 0.5519,-1.7523 0,-0.7696 -0.1788,-1.3644 -0.5366,-1.7844 -0.3563,-0.4201 -0.8498,-0.6293 -1.4765,-0.6293 z m 6.8349,5.074 v -0.8068 c 0.0915,0.0817 0.2024,0.154 0.3313,0.2192 0.1276,0.0649 0.2637,0.1204 0.4048,0.1649 0.1429,0.0442 0.2843,0.0788 0.4286,0.1038 0.1426,0.0238 0.2758,0.0363 0.3977,0.0363 0.4187,0 0.7322,-0.0777 0.9386,-0.233 0.2066,-0.1554 0.3107,-0.3799 0.3107,-0.671 0,-0.1582 -0.0346,-0.294 -0.1041,-0.4105 -0.0677,-0.1165 -0.1635,-0.2231 -0.2854,-0.3189 -0.1222,-0.0969 -0.2662,-0.1885 -0.4326,-0.2772 -0.1664,-0.0873 -0.3452,-0.1803 -0.5366,-0.2772 -0.2038,-0.1041 -0.3923,-0.2081 -0.5683,-0.3132 -0.1761,-0.1055 -0.3286,-0.222 -0.459,-0.3496 -0.1289,-0.1275 -0.2316,-0.2718 -0.3064,-0.4325 -0.0734,-0.1622 -0.1108,-0.3507 -0.1108,-0.567 0,-0.2661 0.0581,-0.4963 0.1746,-0.6933 0.1165,-0.1967 0.269,-0.3589 0.4589,-0.485 0.1899,-0.1276 0.4048,-0.2234 0.6475,-0.2857 0.2426,-0.0624 0.4892,-0.093 0.7415,-0.093 0.574,0 0.9927,0.0694 1.2549,0.208 v 0.7654 c -0.3438,-0.2384 -0.7849,-0.3577 -1.3241,-0.3577 -0.1482,0 -0.2968,0.0153 -0.4464,0.047 -0.1483,0.0306 -0.2815,0.0819 -0.398,0.1525 -0.1162,0.0709 -0.2106,0.1622 -0.284,0.2733 -0.0735,0.1108 -0.1097,0.2466 -0.1097,0.4076 0,0.1483 0.0277,0.2772 0.0833,0.3852 0.0553,0.1083 0.1372,0.2081 0.2452,0.2968 0.1083,0.0902 0.2401,0.176 0.3951,0.2605 0.1554,0.0834 0.3357,0.1761 0.5381,0.2761 0.208,0.1026 0.4062,0.2106 0.5918,0.3257 0.1874,0.1137 0.351,0.2384 0.491,0.377 0.1414,0.1386 0.2523,0.2911 0.3353,0.459 0.082,0.1678 0.1236,0.3605 0.1236,0.5782 0,0.2869 -0.0555,0.5295 -0.1678,0.7291 -0.1122,0.1984 -0.2647,0.3606 -0.4547,0.4853 -0.1913,0.1247 -0.4118,0.2148 -0.6599,0.2704 -0.2497,0.0553 -0.5116,0.0831 -0.7874,0.0831 -0.0916,0 -0.2053,-0.007 -0.3413,-0.0221 -0.1358,-0.0154 -0.273,-0.036 -0.4145,-0.0652 -0.14,-0.0278 -0.2729,-0.0638 -0.3991,-0.1055 -0.1264,-0.0414 -0.2262,-0.0887 -0.3024,-0.14 z"
       style="fill:#ffffff;fill-rule:evenodd"
       id="path12" />
    <path
       d="m 115.3935,36.3777 h -1.951 l -2.4206,-5.5075 h 8.3273 v 4e-4 h 4.3715 l -2.4205,5.5075 h -5.9067 z"
       style="fill:#e3002f;fill-rule:evenodd"
       id="path14" />
    <path
       d="m 149.4476,110.0305 -4e-4,2e-4 -0.008,-2e-4 H 91.8973 l 4.6922,-10.7265 9.4242,-6.1424 44.2235,-27.5165 c 9.1098,-5.6682 4.1701,-29.2675 -12.3167,-29.2675 h -3.8488 l -2.4205,-5.5074 h 7.3695 c 31.0507,0 32.9163,33.986 17.8921,42.5414 l -54.6352,31.1115 h 59.1187 l 2.3526,5.5074 z"
       style="fill:#e3002f;fill-rule:evenodd"
       id="path16" />
  </g>
</svg>
